<?xml version="1.0" encoding="utf-8"?>
<!-- Generator: Adobe Illustrator 18.0.0, SVG Export Plug-In . SVG Version: 6.00 Build 0)  -->
<!DOCTYPE svg PUBLIC "-//W3C//DTD SVG 1.1//EN" "http://www.w3.org/Graphics/SVG/1.1/DTD/svg11.dtd">
<svg version="1.1" id="Layer_1" xmlns="http://www.w3.org/2000/svg" xmlns:xlink="http://www.w3.org/1999/xlink" x="0px" y="0px"
	 viewBox="0 0 730 730" enable-background="new 0 0 730 730" xml:space="preserve">
<path fill-rule="evenodd" clip-rule="evenodd" fill="#FFFFFF" d="M536.1,730c7.4,0,14.8,0,22.2,0c6.2,0,12.5-0.1,18.7-0.3
	c13.6-0.4,27.3-1.2,40.7-3.6c13.6-2.5,26.3-6.4,38.7-12.8c12.2-6.2,23.3-14.3,33-24c9.7-9.7,17.8-20.8,23.9-33
	c6.3-12.4,10.3-25.1,12.8-38.7c2.4-13.4,3.2-27.1,3.6-40.7c0.2-6.2,0.2-12.5,0.3-18.7c0-7.4,0-14.8,0-22.2l0-85.1V279l0-85.1
	c0-7.4,0-14.8,0-22.2c0-6.2-0.1-12.5-0.3-18.7c-0.4-13.6-1.2-27.3-3.6-40.7c-2.5-13.6-6.5-26.3-12.8-38.7
	c-6.2-12.2-14.3-23.3-23.9-33c-9.7-9.7-20.8-17.8-33-24C644,10.4,631.3,6.4,617.7,3.9c-13.4-2.4-27.1-3.2-40.7-3.6
	c-6.2-0.2-12.5-0.2-18.7-0.3c-7.4,0-14.8,0-22.2,0L451,0l78.9,0H279l-85.1,0c-7.4,0-14.8,0-22.2,0c-6.2,0-12.5,0.1-18.7,0.3
	c-13.6,0.4-27.3,1.2-40.7,3.6C98.7,6.4,86,10.4,73.6,16.7c-12.2,6.2-23.3,14.3-33,24c-9.7,9.7-17.8,20.8-23.9,33
	C10.4,86,6.4,98.7,3.9,112.3c-2.4,13.4-3.2,27.1-3.6,40.7c-0.2,6.2-0.2,12.5-0.3,18.7c0,7.4,0,14.8,0,22.2L0,279v172l0,85.1
	c0,7.4,0,14.8,0,22.2c0,6.2,0.1,12.5,0.3,18.7c0.4,13.6,1.2,27.3,3.6,40.7c2.5,13.6,6.5,26.3,12.8,38.7c6.2,12.2,14.3,23.3,23.9,33
	c9.7,9.7,20.8,17.8,33,24c12.4,6.3,25.1,10.3,38.7,12.8c13.4,2.4,27.1,3.2,40.7,3.6c6.2,0.2,12.5,0.2,18.7,0.3c7.4,0,14.8,0,22.2,0
	l85.1,0h250.9L536.1,730z"/>
</svg>
